<svg xmlns="http://www.w3.org/2000/svg" version="1.1" xmlns:xlink="http://www.w3.org/1999/xlink" xmlns:svgjs="http://svgjs.dev/svgjs" width="1440" height="676" preserveAspectRatio="none" viewBox="0 0 1440 676"><g mask="url(&quot;#SvgjsMask3178&quot;)" fill="none"><rect width="1440" height="676" x="0" y="0" fill="url(&quot;#SvgjsLinearGradient3179&quot;)"></rect><path d="M0 0L365.93 0L0 221.43z" fill="rgba(255, 255, 255, .1)"></path><path d="M0 221.43L365.93 0L403.46000000000004 0L0 279.53000000000003z" fill="rgba(255, 255, 255, .075)"></path><path d="M0 279.53000000000003L403.46000000000004 0L671.6800000000001 0L0 394.07000000000005z" fill="rgba(255, 255, 255, .05)"></path><path d="M0 394.07000000000005L671.6800000000001 0L694.3100000000001 0L0 420.0400000000001z" fill="rgba(255, 255, 255, .025)"></path><path d="M1440 676L920.41 676L1440 551.21z" fill="rgba(0, 0, 0, .1)"></path><path d="M1440 551.21L920.41 676L877.3 676L1440 373.06000000000006z" fill="rgba(0, 0, 0, .075)"></path><path d="M1440 373.06L877.3 676L450.91999999999996 676L1440 368.81z" fill="rgba(0, 0, 0, .05)"></path><path d="M1440 368.81L450.91999999999996 676L237.33999999999995 676L1440 357.42z" fill="rgba(0, 0, 0, .025)"></path></g><defs><mask id="SvgjsMask3178"><rect width="1440" height="676" fill="#ffffff"></rect></mask><linearGradient x1="50%" y1="0%" x2="50%" y2="100%" gradientUnits="userSpaceOnUse" id="SvgjsLinearGradient3179"><stop stop-color="rgba(223, 43, 43, 1)" offset="0.02"></stop><stop stop-color="rgba(211, 216, 220, 1)" offset="0.51"></stop><stop stop-color="rgba(211, 216, 220, 1)" offset="0.52"></stop><stop stop-color="rgba(253, 53, 53, 1)" offset="1"></stop></linearGradient></defs></svg>